<svg width="20" height="20" viewBox="0 0 20 20" fill="none" xmlns="http://www.w3.org/2000/svg">
<g clip-path="url(#clip0_4726_5061)">
<path d="M9.375 9.375C9.54076 9.375 9.69973 9.44085 9.81694 9.55806C9.93415 9.67527 10 9.83424 10 10V13.125C10 13.2908 10.0658 13.4497 10.1831 13.5669C10.3003 13.6842 10.4592 13.75 10.625 13.75" stroke="#ADB4BD" stroke-linecap="round" stroke-linejoin="round"/>
<path d="M10 17.5C14.1421 17.5 17.5 14.1421 17.5 10C17.5 5.85786 14.1421 2.5 10 2.5C5.85786 2.5 2.5 5.85786 2.5 10C2.5 14.1421 5.85786 17.5 10 17.5Z" stroke="#ADB4BD" stroke-linecap="round" stroke-linejoin="round"/>
<path d="M10 8.125C10.3452 8.125 10.625 7.84518 10.625 7.5C10.625 7.15482 10.3452 6.875 10 6.875C9.65482 6.875 9.375 7.15482 9.375 7.5C9.375 7.84518 9.65482 8.125 10 8.125Z" fill="#ADB4BD"/>
</g>
<defs>
<clipPath id="clip0_4726_5061">
<rect width="20" height="20" fill="white"/>
</clipPath>
</defs>
</svg>
