<svg width="16" height="16" viewBox="0 0 16 16" fill="none" xmlns="http://www.w3.org/2000/svg">
<g clip-path="url(#clip0_3700_2139)">
<path d="M7.5 7.5C7.63261 7.5 7.75979 7.55268 7.85355 7.64645C7.94732 7.74021 8 7.86739 8 8V10.5C8 10.6326 8.05268 10.7598 8.14645 10.8536C8.24021 10.9473 8.36739 11 8.5 11" stroke="#ADB4BD" stroke-linecap="round" stroke-linejoin="round"/>
<path d="M8 14C11.3137 14 14 11.3137 14 8C14 4.68629 11.3137 2 8 2C4.68629 2 2 4.68629 2 8C2 11.3137 4.68629 14 8 14Z" stroke="#ADB4BD" stroke-linecap="round" stroke-linejoin="round"/>
<path d="M8 6.5C8.27614 6.5 8.5 6.27614 8.5 6C8.5 5.72386 8.27614 5.5 8 5.5C7.72386 5.5 7.5 5.72386 7.5 6C7.5 6.27614 7.72386 6.5 8 6.5Z" fill="#ADB4BD"/>
</g>
<defs>
<clipPath id="clip0_3700_2139">
<rect width="16" height="16" fill="white"/>
</clipPath>
</defs>
</svg>
