<svg width="16" height="16" viewBox="0 0 16 16" fill="none" xmlns="http://www.w3.org/2000/svg">
<g clip-path="url(#clip0_3671_2978)">
<path d="M6 10L10 6" stroke="#F6FAFD" stroke-linecap="round" stroke-linejoin="round"/>
<path d="M7 4.75698L8.87875 2.88198C9.44291 2.32694 10.2035 2.01731 10.9949 2.02053C11.7864 2.02376 12.5444 2.33957 13.104 2.89919C13.6637 3.4588 13.9795 4.21688 13.9827 5.00829C13.9859 5.7997 13.6763 6.56033 13.1213 7.12448L11.2425 9.00011" stroke="#F6FAFD" stroke-linecap="round" stroke-linejoin="round"/>
<path d="M4.75686 7L2.88186 8.87875C2.32682 9.44291 2.01719 10.2035 2.02041 10.9949C2.02363 11.7864 2.33945 12.5444 2.89907 13.104C3.45868 13.6637 4.21676 13.9795 5.00817 13.9827C5.79958 13.9859 6.5602 13.6763 7.12436 13.1213L8.99999 11.2425" stroke="#F6FAFD" stroke-linecap="round" stroke-linejoin="round"/>
</g>
<defs>
<clipPath id="clip0_3671_2978">
<rect width="16" height="16" fill="white"/>
</clipPath>
</defs>
</svg>
